<mxfile host="app.diagrams.net" modified="2021-04-19T08:10:04.041Z" agent="5.0 (Windows NT 10.0; Win64; x64) AppleWebKit/537.36 (KHTML, like Gecko) Chrome/89.0.4389.128 Safari/537.36" etag="yTbqLFPBL_MhgouKVuHM" version="14.6.1" type="github" pages="3">
  <diagram id="yPjKVgYsnCd9kTvplsF-" name="dictionary-scenario">
    <mxGraphModel dx="1422" dy="794" grid="1" gridSize="10" guides="1" tooltips="1" connect="1" arrows="1" fold="1" page="1" pageScale="1" pageWidth="827" pageHeight="1169" math="0" shadow="0">
      <root>
        <mxCell id="0" />
        <mxCell id="1" parent="0" />
      </root>
    </mxGraphModel>
  </diagram>
  <diagram id="-kq18H6BxzsgiepciD7F" name="translator-scenario">
    <mxGraphModel dx="1422" dy="794" grid="1" gridSize="10" guides="1" tooltips="1" connect="1" arrows="1" fold="1" page="1" pageScale="1" pageWidth="827" pageHeight="1169" math="0" shadow="0">
      <root>
        <mxCell id="Kvsw5OrLsdX1IoLE7TAO-0" />
        <mxCell id="Kvsw5OrLsdX1IoLE7TAO-1" parent="Kvsw5OrLsdX1IoLE7TAO-0" />
      </root>
    </mxGraphModel>
  </diagram>
  <diagram id="V3btBKD6Lkb8V-PPj-VW" name="chatbot-scenario">
    <mxGraphModel dx="813" dy="454" grid="1" gridSize="10" guides="1" tooltips="1" connect="1" arrows="1" fold="1" page="1" pageScale="1" pageWidth="1169" pageHeight="827" math="0" shadow="0">
      <root>
        <mxCell id="SBxdAudHn4qQ-Q9jw4Up-0" />
        <mxCell id="SBxdAudHn4qQ-Q9jw4Up-1" parent="SBxdAudHn4qQ-Q9jw4Up-0" />
        <mxCell id="aKUs7nPIIrOI4cKzVTfa-1" value="" style="shape=umlLifeline;participant=umlActor;perimeter=lifelinePerimeter;whiteSpace=wrap;html=1;container=1;collapsible=0;recursiveResize=0;verticalAlign=top;spacingTop=36;outlineConnect=0;" vertex="1" parent="SBxdAudHn4qQ-Q9jw4Up-1">
          <mxGeometry x="30" y="40" width="20" height="120" as="geometry" />
        </mxCell>
        <mxCell id="aKUs7nPIIrOI4cKzVTfa-2" value="" style="shape=umlLifeline;participant=umlBoundary;perimeter=lifelinePerimeter;whiteSpace=wrap;html=1;container=1;collapsible=0;recursiveResize=0;verticalAlign=top;spacingTop=36;outlineConnect=0;" vertex="1" parent="SBxdAudHn4qQ-Q9jw4Up-1">
          <mxGeometry x="180" y="40" width="50" height="120" as="geometry" />
        </mxCell>
        <mxCell id="aKUs7nPIIrOI4cKzVTfa-3" value="" style="shape=umlLifeline;participant=umlControl;perimeter=lifelinePerimeter;whiteSpace=wrap;html=1;container=1;collapsible=0;recursiveResize=0;verticalAlign=top;spacingTop=36;outlineConnect=0;" vertex="1" parent="SBxdAudHn4qQ-Q9jw4Up-1">
          <mxGeometry x="350" y="40" width="40" height="120" as="geometry" />
        </mxCell>
        <mxCell id="aKUs7nPIIrOI4cKzVTfa-4" value="" style="shape=umlLifeline;participant=umlEntity;perimeter=lifelinePerimeter;whiteSpace=wrap;html=1;container=1;collapsible=0;recursiveResize=0;verticalAlign=top;spacingTop=36;outlineConnect=0;" vertex="1" parent="SBxdAudHn4qQ-Q9jw4Up-1">
          <mxGeometry x="495" y="40" width="40" height="120" as="geometry" />
        </mxCell>
        <mxCell id="aKUs7nPIIrOI4cKzVTfa-5" value="" style="html=1;points=[];perimeter=orthogonalPerimeter;" vertex="1" parent="SBxdAudHn4qQ-Q9jw4Up-1">
          <mxGeometry x="35" y="120" width="10" height="80" as="geometry" />
        </mxCell>
        <mxCell id="aKUs7nPIIrOI4cKzVTfa-6" value="" style="html=1;points=[];perimeter=orthogonalPerimeter;" vertex="1" parent="SBxdAudHn4qQ-Q9jw4Up-1">
          <mxGeometry x="200" y="120" width="10" height="80" as="geometry" />
        </mxCell>
        <mxCell id="aKUs7nPIIrOI4cKzVTfa-7" value="" style="html=1;points=[];perimeter=orthogonalPerimeter;" vertex="1" parent="SBxdAudHn4qQ-Q9jw4Up-1">
          <mxGeometry x="365" y="120" width="10" height="80" as="geometry" />
        </mxCell>
        <mxCell id="aKUs7nPIIrOI4cKzVTfa-8" value="" style="html=1;points=[];perimeter=orthogonalPerimeter;" vertex="1" parent="SBxdAudHn4qQ-Q9jw4Up-1">
          <mxGeometry x="510" y="120" width="10" height="80" as="geometry" />
        </mxCell>
        <mxCell id="aKUs7nPIIrOI4cKzVTfa-9" value="getENTranslation(String sentence)" style="endArrow=block;endFill=1;html=1;edgeStyle=orthogonalEdgeStyle;align=left;verticalAlign=top;" edge="1" parent="SBxdAudHn4qQ-Q9jw4Up-1">
          <mxGeometry x="-1" relative="1" as="geometry">
            <mxPoint x="102.5" y="300" as="sourcePoint" />
            <mxPoint x="307.5" y="300" as="targetPoint" />
          </mxGeometry>
        </mxCell>
        <mxCell id="aKUs7nPIIrOI4cKzVTfa-13" value="" style="endArrow=open;endFill=1;endSize=12;html=1;" edge="1" parent="SBxdAudHn4qQ-Q9jw4Up-1">
          <mxGeometry width="160" relative="1" as="geometry">
            <mxPoint x="200" y="140" as="sourcePoint" />
            <mxPoint x="45" y="140" as="targetPoint" />
          </mxGeometry>
        </mxCell>
        <mxCell id="aKUs7nPIIrOI4cKzVTfa-14" value="&lt;span style=&quot;font-size: 11px ; background-color: rgb(255 , 255 , 255)&quot;&gt;generateGreeting()&lt;/span&gt;" style="text;html=1;align=center;verticalAlign=middle;resizable=0;points=[];autosize=1;strokeColor=none;" vertex="1" parent="SBxdAudHn4qQ-Q9jw4Up-1">
          <mxGeometry x="60" y="120" width="110" height="20" as="geometry" />
        </mxCell>
        <mxCell id="aKUs7nPIIrOI4cKzVTfa-15" value="" style="endArrow=open;endFill=1;endSize=12;html=1;" edge="1" parent="SBxdAudHn4qQ-Q9jw4Up-1">
          <mxGeometry width="160" relative="1" as="geometry">
            <mxPoint x="365" y="130" as="sourcePoint" />
            <mxPoint x="210" y="130" as="targetPoint" />
          </mxGeometry>
        </mxCell>
        <mxCell id="aKUs7nPIIrOI4cKzVTfa-16" value="&lt;span style=&quot;font-size: 11px ; background-color: rgb(255 , 255 , 255)&quot;&gt;generateGreeting()&lt;/span&gt;" style="text;html=1;align=center;verticalAlign=middle;resizable=0;points=[];autosize=1;strokeColor=none;" vertex="1" parent="SBxdAudHn4qQ-Q9jw4Up-1">
          <mxGeometry x="240" y="110" width="110" height="20" as="geometry" />
        </mxCell>
      </root>
    </mxGraphModel>
  </diagram>
</mxfile>
